screens;
 
http://baypic.net/img-519da23e284bb.html 
 
http://baypic.net/img-519da2402384b.html 
 
http://baypic.net/img-519da242273d3.html 

Format : MPEG-4
Format profile : Base Media
Codec ID : isom
File size : 753 MiB
Duration : 9mn 52s
Overall bit rate : 10.7 Mbps
Writing application : Lavf55.3.100

Video
ID : 1
Format : AVC
Format/Info : Advanced Video Codec
Format profile : High@L4.1
Format settings, CABAC : Yes
Format settings, ReFrames : 5 frames
Codec ID : avc1
Codec ID/Info : Advanced Video Coding
Duration : 9mn 52s
Bit rate : 10 000 Kbps
Width : 1 280 pixels
Height : 720 pixels
Display aspect ratio : 16:9
Frame rate mode : Constant
Frame rate : 29.970 fps
Color space : YUV
Chroma subsampling : 4:2:0
Bit depth : 8 bits
Scan type : Progressive
Bits/(Pixel*Frame) : 0.362
Stream size : 713 MiB (95%)
Tagged date : UTC 2013-05-14 16:09:17

Audio
ID : 2
Format : AAC
Format/Info : Advanced Audio Codec
Format profile : LC
Codec ID : 40
Duration : 9mn 52s
Duration_LastFrame : -17ms
Bit rate mode : Constant
Bit rate : 128 Kbps
Channel(s) : 2 channels
Channel positions : Front: L R
Sampling rate : 48.0 KHz
Compression mode : Lossy
Stream size : 9.05 MiB (1%)